<?xml version="1.0" encoding="utf-8"?>
<!-- Generator: Adobe Illustrator 24.0.0, SVG Export Plug-In . SVG Version: 6.00 Build 0)  -->
<svg version="1.1" id="Layer_1" xmlns="http://www.w3.org/2000/svg" xmlns:xlink="http://www.w3.org/1999/xlink" x="0px" y="0px"
	 viewBox="0 0 100 100" style="enable-background:new 0 0 100 100;" xml:space="preserve">
<style type="text/css">
	.st0{fill:none;stroke:#B19C5E;stroke-width:4;stroke-linejoin:round;stroke-miterlimit:10;}
</style>
<path class="st0" d="M50.34,2.29c5.25-0.17,17.83-0.41,18.7,23.65c0,0,2.34,14.95-8.18,21.77v8.56c0,0-1.31,4.64,14.02,7.55
	c0,0,14.17,0.15,15.78,7.69l0.29,15.53c0,0-0.44,10.45-11.25,10.74H22.44C11.63,97.49,11.2,87.04,11.2,87.04l0.29-15.53
	c1.61-7.55,15.78-7.69,15.78-7.69c15.34-2.9,14.02-7.55,14.02-7.55v-8.56c-10.52-6.82-8.18-21.77-8.18-21.77
	C33.98,1.88,44.58,2.36,49.83,2.29H50.34z"/>
</svg>
