<?xml version="1.0" encoding="utf-8"?>
<!-- Generator: Adobe Illustrator 24.0.0, SVG Export Plug-In . SVG Version: 6.00 Build 0)  -->
<svg version="1.1" id="Layer_1" xmlns="http://www.w3.org/2000/svg" xmlns:xlink="http://www.w3.org/1999/xlink" x="0px" y="0px"
	 viewBox="0 0 86.22 35.7" style="enable-background:new 0 0 86.22 35.7;" xml:space="preserve">
<g>
	<path d="M18.68,4.32h8.81v0.87h-1.51c-0.67,0-1.1,0.08-1.27,0.23c-0.18,0.15-0.26,0.47-0.26,0.96v13.01c0,0.52,0.08,0.84,0.23,0.98
		c0.21,0.18,0.58,0.27,1.12,0.27h1.69v0.87h-8.81v-0.87h1.67c0.59,0,0.96-0.08,1.14-0.23c0.17-0.15,0.26-0.49,0.26-1.01V6.38
		c0-0.5-0.08-0.8-0.23-0.92c-0.24-0.18-0.68-0.27-1.33-0.27h-1.5V4.32z"/>
	<path d="M28.23,4.32h6.38v0.87h-0.45c-0.67,0-1.1,0.05-1.28,0.14c-0.18,0.09-0.28,0.24-0.28,0.44c0,0.14,0.06,0.36,0.19,0.66
		l0.08,0.22l3.89,10.9l3.41-10.07c-0.4-1.14-0.7-1.81-0.91-2.01c-0.21-0.19-0.63-0.29-1.26-0.29h-1.16V4.32h7.97v0.87H44
		c-0.72,0-1.19,0.05-1.41,0.16c-0.22,0.1-0.32,0.26-0.32,0.47c0,0.16,0.03,0.31,0.08,0.45l3.96,11.29l3.26-9.77
		c0.13-0.38,0.19-0.74,0.19-1.09c0-0.52-0.13-0.9-0.39-1.14s-0.66-0.37-1.18-0.37h-0.59V4.32h6v0.87c-0.53,0.06-0.94,0.18-1.25,0.34
		c-0.31,0.17-0.58,0.4-0.81,0.71c-0.23,0.31-0.46,0.82-0.69,1.54L46.12,21.9H45.2l-4.4-12.62L36.61,21.9h-0.97L30.27,6.66
		c-0.22-0.6-0.46-0.99-0.73-1.18c-0.27-0.19-0.7-0.28-1.3-0.28V4.32z"/>
	<path d="M65.57,5.66L66.46,4h0.81l0.34,6.91h-0.87c-0.57-1.94-1.28-3.38-2.14-4.3c-1.07-1.15-2.34-1.73-3.82-1.73
		c-1.6,0-2.91,0.64-3.92,1.93c-1.01,1.29-1.51,3.46-1.51,6.53c0,2.58,0.58,4.54,1.73,5.9c0.98,1.15,2.36,1.72,4.13,1.72
		c1.55,0,2.85-0.45,3.9-1.34c1.05-0.89,1.74-2.24,2.05-4.05h0.92c-0.27,2.04-1.05,3.62-2.34,4.71c-1.29,1.1-2.92,1.65-4.88,1.65
		c-1.59,0-3.06-0.36-4.39-1.08c-1.33-0.72-2.39-1.76-3.19-3.11c-0.8-1.35-1.2-2.83-1.2-4.44c0-1.71,0.41-3.32,1.23-4.82
		c0.82-1.5,1.88-2.63,3.16-3.38c1.28-0.75,2.67-1.13,4.15-1.13c0.83,0,1.63,0.13,2.4,0.38C63.81,4.6,64.66,5.04,65.57,5.66z"/>
</g>
<g>
	<path d="M1.29,32.39c0.37,0.21,0.92,0.4,1.52,0.4c0.69,0,1.08-0.3,1.08-0.76c0-0.41-0.29-0.66-1.08-0.9
		c-1.03-0.31-1.68-0.79-1.68-1.66c0-0.94,0.83-1.63,2.11-1.63c0.69,0,1.18,0.14,1.52,0.3l-0.27,0.85c-0.22-0.11-0.66-0.29-1.27-0.29
		c-0.7,0-0.99,0.35-0.99,0.68c0,0.43,0.36,0.63,1.17,0.89c1.06,0.34,1.6,0.82,1.6,1.69c0,0.87-0.67,1.7-2.27,1.7
		c-0.65,0-1.34-0.19-1.69-0.4L1.29,32.39z"/>
	<path d="M12.43,33.37c-0.27,0.13-0.88,0.29-1.67,0.29c-1.95,0-3.16-1.15-3.16-2.85c0-1.74,1.34-2.98,3.3-2.98
		c0.78,0,1.33,0.16,1.57,0.28l-0.24,0.84c-0.31-0.14-0.76-0.26-1.28-0.26c-1.32,0-2.22,0.77-2.22,2.06c0,1.15,0.77,2.01,2.2,2.01
		c0.48,0,0.99-0.09,1.31-0.24L12.43,33.37z"/>
	<path d="M16.37,27.94v2.23h2.72v-2.23h1.07v5.63h-1.07v-2.48h-2.72v2.48h-1.07v-5.63H16.37z"/>
	<path d="M24.55,31.94l-0.54,1.63h-1.13l1.99-5.63h1.4l2.05,5.63h-1.18l-0.58-1.63H24.55z M26.37,31.13l-0.51-1.42
		c-0.12-0.34-0.22-0.68-0.31-0.98h-0.02c-0.09,0.31-0.18,0.65-0.29,0.98l-0.5,1.42H26.37z"/>
	<path d="M31.06,27.94h3.57v0.87h-2.49v1.51h2.32v0.87h-2.32v2.38h-1.07V27.94z"/>
	<path d="M37.61,27.94h3.57v0.87h-2.49v1.51H41v0.87h-2.32v2.38h-1.07V27.94z"/>
	<path d="M45.23,27.94v2.23h2.72v-2.23h1.07v5.63h-1.07v-2.48h-2.72v2.48h-1.07v-5.63H45.23z"/>
	<path d="M53.42,31.94l-0.54,1.63h-1.13l1.99-5.63h1.4l2.05,5.63h-1.18l-0.58-1.63H53.42z M55.23,31.13l-0.51-1.42
		c-0.12-0.34-0.22-0.68-0.31-0.98h-0.02c-0.09,0.31-0.18,0.65-0.29,0.98l-0.5,1.42H55.23z"/>
	<path d="M60.69,27.94v3.14c0,1.16,0.51,1.75,1.32,1.75c0.86,0,1.36-0.58,1.36-1.75v-3.14h1.07v3.1c0,1.83-1,2.63-2.49,2.63
		c-1.39,0-2.35-0.74-2.35-2.63v-3.09H60.69z"/>
	<path d="M67.62,32.39c0.37,0.21,0.92,0.4,1.52,0.4c0.69,0,1.08-0.3,1.08-0.76c0-0.41-0.29-0.66-1.08-0.9
		c-1.03-0.31-1.68-0.79-1.68-1.66c0-0.94,0.83-1.63,2.11-1.63c0.69,0,1.18,0.14,1.52,0.3l-0.27,0.85c-0.22-0.11-0.66-0.29-1.27-0.29
		c-0.7,0-0.99,0.35-0.99,0.68c0,0.43,0.36,0.63,1.17,0.89c1.06,0.34,1.6,0.82,1.6,1.69c0,0.87-0.67,1.7-2.27,1.7
		c-0.65,0-1.34-0.19-1.69-0.4L67.62,32.39z"/>
	<path d="M77.69,31.09h-2.38v1.6h2.66v0.87h-3.73v-5.63h3.6v0.87h-2.52v1.41h2.38V31.09z"/>
	<path d="M80.83,33.57v-5.63h1.29l1.62,2.42c0.43,0.66,0.77,1.29,1.06,1.92l0.02-0.01c-0.08-0.76-0.09-1.43-0.09-2.24v-2.09h1v5.63
		h-1.14l-1.64-2.5c-0.41-0.65-0.82-1.34-1.14-1.99l-0.03,0.01c0.04,0.76,0.05,1.48,0.05,2.33v2.16H80.83z"/>
</g>
</svg>
